<?xml version="1.0" encoding="UTF-8"?>
<!-- Generator: Adobe Illustrator 19.1.0, SVG Export Plug-In . SVG Version: 6.00 Build 0)  -->
<svg version="1.1" id="Layer_1" xmlns="http://www.w3.org/2000/svg" xmlns:xlink="http://www.w3.org/1999/xlink" x="0px" y="0px" width="72px" height="60px" viewBox="0 0 72 60" style="enable-background:new 0 0 72 60;" xml:space="preserve">
<style type="text/css">
	.st0{fill:#252B2B;}
</style>
<g>
	<path class="st0" d="M16.5,57h-15C0.7,57,0,56.3,0,55.5v-27C0,27.7,0.7,27,1.5,27h15c0.8,0,1.5,0.7,1.5,1.5v27   C18,56.3,17.3,57,16.5,57z M3,54h12V30H3V54z"/>
	<path class="st0" d="M42,60c-5.1,0-11.5-2.7-16.7-4.9c-3.1-1.3-6.2-2.6-7.5-2.6c-0.8,0-1.5-0.7-1.5-1.5c0-0.8,0.7-1.5,1.5-1.5   c1.9,0,4.9,1.3,8.7,2.9c4.9,2.1,11,4.7,15.5,4.7c8.8,0,27-10.4,27-13.5c0-2.7-0.6-3-3-3c-0.9,0-2.7,1.4-4.4,2.6   C58.7,45.3,55,48,51,48c-0.8,0-1.5-0.7-1.5-1.5c0-1-0.3-1.7-0.9-2.3c-2.3-2.3-8.2-2.2-10.1-2.1c-1.7,0-3-0.8-4.7-2   c-3-1.9-7-4.5-15.4-4.6c-0.8,0-1.5-0.7-1.5-1.5c0-0.8,0.7-1.5,1.5-1.5c9.2,0.1,13.9,3.1,17,5.1c1.3,0.8,2.3,1.4,3,1.4c0,0,0,0,0,0   c3.9,0,9.4,0.2,12.3,3c0.8,0.8,1.4,1.8,1.6,2.8c2.6-0.5,5.2-2.5,7.6-4.2c2.4-1.8,4.3-3.2,6.1-3.2c4.2,0,6,1.8,6,6   C72,49.9,50.5,60,42,60z"/>
	<path class="st0" d="M51,48H30c-0.8,0-1.5-0.7-1.5-1.5S29.2,45,30,45h21c0.8,0,1.5,0.7,1.5,1.5S51.8,48,51,48z"/>
	<path class="st0" d="M55.5,9h-9C44,9,42,7,42,4.5S44,0,46.5,0h9C58,0,60,2,60,4.5S58,9,55.5,9z M46.5,3C45.7,3,45,3.7,45,4.5   S45.7,6,46.5,6h9C56.3,6,57,5.3,57,4.5S56.3,3,55.5,3H46.5z"/>
	<path class="st0" d="M40.5,21h-9C29,21,27,19,27,16.5s2-4.5,4.5-4.5h9c2.5,0,4.5,2,4.5,4.5S43,21,40.5,21z M31.5,15   c-0.8,0-1.5,0.7-1.5,1.5s0.7,1.5,1.5,1.5h9c0.8,0,1.5-0.7,1.5-1.5S41.3,15,40.5,15H31.5z"/>
	<path class="st0" d="M55.5,33h-9C44,33,42,31,42,28.5s2-4.5,4.5-4.5h9c2.5,0,4.5,2,4.5,4.5S58,33,55.5,33z M46.5,27   c-0.8,0-1.5,0.7-1.5,1.5s0.7,1.5,1.5,1.5h9c0.8,0,1.5-0.7,1.5-1.5S56.3,27,55.5,27H46.5z"/>
</g>
</svg>