<?xml version="1.0" encoding="iso-8859-1"?>
<!-- Generator: Adobe Illustrator 19.0.0, SVG Export Plug-In . SVG Version: 6.00 Build 0)  -->
<svg version="1.1" id="Capa_1" xmlns="http://www.w3.org/2000/svg" xmlns:xlink="http://www.w3.org/1999/xlink" x="0px" y="0px"
	 viewBox="0 0 512 512" style="enable-background:new 0 0 512 512;" xml:space="preserve">
<g>
	<g>
		<path d="M337,150c-13.785,0-25,11.215-25,25c0,13.785,11.215,25,25,25c13.785,0,25-11.215,25-25C362,161.215,350.785,150,337,150z
			"/>
	</g>
</g>
<g>
	<g>
		<path d="M175,482c-11.987,0-22.026-8.481-24.442-19.757C145.551,463.384,140.347,464,135,464c-5.052,0-9.978-0.543-14.729-1.565
			C123.009,490.22,146.507,512,175,512h337v-30H175z"/>
	</g>
</g>
<g>
	<g>
		<path d="M79.188,354l10,30H95v10c0,22.056,17.944,40,40,40c22.056,0,40-17.944,40-40v-10h5.812l10-30H79.188z"/>
	</g>
</g>
<g>
	<g>
		<path d="M163.999,45.897C164,20.589,143.411,0,118.103,0h-2.205C90.589,0,70,20.589,70,45.897V124H46.991l-5.714,40h87.447
			l-5.715-40H100V45.897C100,37.131,107.131,30,115.897,30h2.205C126.869,30,134,37.131,134,45.897
			c0,15.612,7.641,29.467,19.372,38.042c4.533-9.104,9.722-17.826,15.507-26.103C165.865,54.751,163.999,50.54,163.999,45.897z"/>
	</g>
</g>
<g>
	<g>
		<path d="M132.888,194H0v130h196.355C161.081,290.686,137.6,245.023,132.888,194z"/>
	</g>
</g>
<g>
	<g>
		<path d="M337,0c-96.495,0-175,78.505-175,175s78.505,175,175,175s175-78.505,175-175S433.495,0,337,0z M407.711,83.076
			l21.213,21.213l-21.213,21.213l-21.213-21.213L407.711,83.076z M322,60h30v30h-30V60z M266.289,83.076l21.213,21.213
			l-21.213,21.213l-21.213-21.213L266.289,83.076z M222,160h30v30h-30V160z M266.289,266.924l-21.213-21.213l21.213-21.213
			l21.213,21.213L266.289,266.924z M352,290h-30v-30h30V290z M337,230c-30.327,0-55-24.673-55-55c0-30.327,24.673-55,55-55
			c30.327,0,55,24.673,55,55C392,205.327,367.327,230,337,230z M407.711,266.924l-21.213-21.213l21.213-21.213l21.213,21.213
			L407.711,266.924z M452,190h-30v-30h30V190z"/>
	</g>
</g>
<g>
</g>
<g>
</g>
<g>
</g>
<g>
</g>
<g>
</g>
<g>
</g>
<g>
</g>
<g>
</g>
<g>
</g>
<g>
</g>
<g>
</g>
<g>
</g>
<g>
</g>
<g>
</g>
<g>
</g>
</svg>
