<?xml version="1.0" encoding="iso-8859-1"?>
<!-- Generator: Adobe Illustrator 19.0.0, SVG Export Plug-In . SVG Version: 6.00 Build 0)  -->
<svg version="1.1" id="Capa_1" xmlns="http://www.w3.org/2000/svg" xmlns:xlink="http://www.w3.org/1999/xlink" x="0px" y="0px"
	 viewBox="0 0 512 512" style="enable-background:new 0 0 512 512;" xml:space="preserve">
<path style="fill:#E4187A;" d="M512,512H175c-30.327,0-55-24.673-55-55v-38h30v38c0,13.785,11.215,25,25,25h337V512z"/>
<path style="fill:#A3B1C4;" d="M135,434c-22.056,0-40-17.944-40-40v-40h80v40C175,416.056,157.056,434,135,434z"/>
<path style="fill:#8799B3;" d="M135,354v80c22.056,0,40-17.944,40-40v-40H135z"/>
<path style="fill:#466288;" d="M180.812,384H89.188l-30-90h151.623L180.812,384z"/>
<polygon style="fill:#243145;" points="135,384 180.812,384 210.812,294 135,294 "/>
<path style="fill:#E4187A;" d="M100,139H70V45.897C70,20.589,90.589,0,115.897,0h2.205C143.411,0,164,20.589,164,45.897
	C164,55.328,171.672,63,181.103,63H214v30h-32.897C155.13,93,134,71.87,134,45.897C134,37.131,126.869,30,118.103,30h-2.205
	C107.131,30,100,37.131,100,45.897V139z"/>
<path style="fill:#466288;" d="M137.295,224H32.705l14.286-100h76.019L137.295,224z"/>
<path style="fill:#A3B1C4;" d="M270,324H0V194h270V324z"/>
<rect x="135" y="194" style="fill:#8799B3;" width="135" height="130"/>
<path style="fill:#FF728B;" d="M337,350c-96.495,0-175-78.505-175-175S240.505,0,337,0s175,78.505,175,175S433.495,350,337,350z"/>
<path style="fill:#EA348B;" d="M337,0v350c96.495,0,175-78.505,175-175S433.495,0,337,0z"/>
<path style="fill:#E4187A;" d="M337,230c-30.327,0-55-24.673-55-55s24.673-55,55-55s55,24.673,55,55S367.327,230,337,230z"/>
<path style="fill:#880E48;" d="M392,175c0-30.327-24.673-55-55-55v110C367.327,230,392,205.327,392,175z"/>
<g>
	<rect x="322" y="60" style="fill:#E4187A;" width="30" height="30"/>
	<rect x="322" y="260" style="fill:#E4187A;" width="30" height="30"/>
	<rect x="222" y="160" style="fill:#E4187A;" width="30" height="30"/>
	
		<rect x="251.288" y="230.715" transform="matrix(0.7071 0.7071 -0.7071 0.7071 251.7405 -116.3258)" style="fill:#E4187A;" width="30" height="30"/>
	
		<rect x="251.29" y="89.293" transform="matrix(0.7071 0.7071 -0.7071 0.7071 151.7407 -157.7487)" style="fill:#E4187A;" width="30" height="30"/>
</g>
<g>
	<rect x="422" y="160" style="fill:#880E48;" width="30" height="30"/>
	
		<rect x="392.708" y="89.285" transform="matrix(-0.7071 -0.7071 0.7071 -0.7071 622.2608 466.3192)" style="fill:#880E48;" width="30" height="30"/>
	
		<rect x="392.71" y="230.717" transform="matrix(0.7071 0.7071 -0.7071 0.7071 293.1634 -216.3256)" style="fill:#880E48;" width="30" height="30"/>
	<rect x="337" y="60" style="fill:#880E48;" width="15" height="30"/>
	<rect x="337" y="260" style="fill:#880E48;" width="15" height="30"/>
</g>
<g>
</g>
<g>
</g>
<g>
</g>
<g>
</g>
<g>
</g>
<g>
</g>
<g>
</g>
<g>
</g>
<g>
</g>
<g>
</g>
<g>
</g>
<g>
</g>
<g>
</g>
<g>
</g>
<g>
</g>
</svg>
