<?xml version="1.0" encoding="iso-8859-1"?>
<!-- Generator: Adobe Illustrator 19.0.0, SVG Export Plug-In . SVG Version: 6.00 Build 0)  -->
<svg version="1.1" id="Capa_1" xmlns="http://www.w3.org/2000/svg" xmlns:xlink="http://www.w3.org/1999/xlink" x="0px" y="0px"
	 viewBox="0 0 512 512" style="enable-background:new 0 0 512 512;" xml:space="preserve">
<g>
	<g>
		<path d="M467,4.5H45c-24.813,0-45,20.187-45,45v413c0,24.813,20.187,45,45,45h422c24.813,0,45-20.187,45-45v-413
			C512,24.687,491.813,4.5,467,4.5z M482,462.5c0,8.271-6.729,15-15,15H45c-8.271,0-15-6.729-15-15v-309h151v60h30v35.213l30,30
			V290.5c0,19.299,15.701,35,35,35h32v-30h-32c-2.757,0-5-2.243-5-5v-11.787l30-30V213.5h30v-60h151V462.5z M211,183.5v-30h90v30
			H211z M271,213.5v22.787l-15,15l-15-15V213.5H271z M482,123.5H30v-74c0-8.271,6.729-15,15-15h422c8.271,0,15,6.729,15,15V123.5z"
			/>
	</g>
</g>
<g>
	<g>
		<circle cx="65" cy="79.5" r="15"/>
	</g>
</g>
<g>
	<g>
		<path d="M390.5,356.5h-269C96.411,356.5,76,376.911,76,402s20.411,45.5,45.5,45.5h269c25.089,0,45.5-20.411,45.5-45.5
			S415.589,356.5,390.5,356.5z M276,417.5H121.5c-8.547,0-15.5-6.953-15.5-15.5s6.953-15.5,15.5-15.5H276V417.5z M390.5,417.5H306
			v-31h84.5c8.547,0,15.5,6.953,15.5,15.5S399.047,417.5,390.5,417.5z"/>
	</g>
</g>
<g>
	<g>
		<circle cx="333" cy="310.5" r="15"/>
	</g>
</g>
<g>
	<g>
		<circle cx="373" cy="310.5" r="15"/>
	</g>
</g>
<g>
	<g>
		<circle cx="413" cy="310.5" r="15"/>
	</g>
</g>
<g>
</g>
<g>
</g>
<g>
</g>
<g>
</g>
<g>
</g>
<g>
</g>
<g>
</g>
<g>
</g>
<g>
</g>
<g>
</g>
<g>
</g>
<g>
</g>
<g>
</g>
<g>
</g>
<g>
</g>
</svg>
