<?xml version="1.0" encoding="iso-8859-1"?>
<!-- Generator: Adobe Illustrator 19.0.0, SVG Export Plug-In . SVG Version: 6.00 Build 0)  -->
<svg version="1.1" id="Capa_1" xmlns="http://www.w3.org/2000/svg" xmlns:xlink="http://www.w3.org/1999/xlink" x="0px" y="0px"
	 viewBox="0 0 512 512" style="enable-background:new 0 0 512 512;" xml:space="preserve">
<g>
	<g>
		<path d="M437,0C430.455,0,76,0,76,0c-8.291,0-15,6.709-15,15s6.709,15,15,15h75v31c0,16.569,13.431,30,30,30h150
			c16.569,0,30-13.431,30-30V30h76c8.291,0,15-6.709,15-15S445.291,0,437,0z"/>
	</g>
</g>
<g>
	<g>
		<path d="M512,347c0-24.814-20.186-45-45-45c-3.775,0-175.132,0-181,0c-8.276,0-15-7.724-15-16v-25.459L324.027,181H187.973
			L241,260.541V286c0,24.814,20.186,46,45,46c3.775,0,175.132,0,181,0c8.276,0,15,6.724,15,15s-6.724,15-15,15
			c-168.506,0-171.273,0-437,0c-16.569,0-30,13.431-30,30c0,16.569,13.431,30,30,30h452c16.569,0,30-13.431,30-30
			c0-7.645-3.085-14.442-7.793-19.739C509.116,365.052,512,356.36,512,347z"/>
	</g>
</g>
<g>
	<g>
		<rect x="181" y="121" width="150" height="30"/>
	</g>
</g>
<g>
	<g>
		<path d="M482,452H30c-16.569,0-30,13.431-30,30c0,16.569,13.431,30,30,30h452c16.569,0,30-13.431,30-30
			C512,465.431,498.569,452,482,452z"/>
	</g>
</g>
<g>
</g>
<g>
</g>
<g>
</g>
<g>
</g>
<g>
</g>
<g>
</g>
<g>
</g>
<g>
</g>
<g>
</g>
<g>
</g>
<g>
</g>
<g>
</g>
<g>
</g>
<g>
</g>
<g>
</g>
</svg>
