<?xml version="1.0" encoding="iso-8859-1"?>
<!-- Generator: Adobe Illustrator 19.0.0, SVG Export Plug-In . SVG Version: 6.00 Build 0)  -->
<svg version="1.1" id="Capa_1" xmlns="http://www.w3.org/2000/svg" xmlns:xlink="http://www.w3.org/1999/xlink" x="0px" y="0px"
	 viewBox="0 0 512 512" style="enable-background:new 0 0 512 512;" xml:space="preserve">
<path style="fill:#BEC8D6;" d="M382,512c-36.819,0-70.507-28.101-94.855-79.127C264.481,385.377,252,322.563,252,256
	s12.481-129.377,35.145-176.873C311.493,28.101,345.181,0,382,0s70.507,28.101,94.855,79.127C499.519,126.623,512,189.437,512,256
	s-12.481,129.377-35.145,176.873C452.507,483.899,418.819,512,382,512z"/>
<path style="fill:#EA348B;" d="M365.063,411H180V101h185.063c7.163,0,17.618,3.163,26.745,18.23
	c5.035,8.313,9.452,19.763,13.128,34.034C412.07,180.968,416,217.454,416,256s-3.93,75.032-11.064,102.736
	c-3.676,14.271-8.093,25.721-13.128,34.034C382.681,407.837,372.226,411,365.063,411z"/>
<path style="fill:#E4187A;" d="M512,512c-105.869,0-192-86.131-192-192v-64c0-32.194-2.949-63.322-8.306-87.647
	c-5.927-26.921-12.782-36.473-14.924-37.882c0.038,0.025-43.771,0-43.771,0V101h46.063c7.163,0,17.618,3.163,26.745,18.23
	c5.035,8.313,9.452,19.763,13.128,34.034C346.07,180.968,350,217.454,350,256v64c0,89.327,72.673,162,162,162V512z"/>
<path style="fill:#FF728B;" d="M270.062,411H180V101h90.062c7.163,0,17.618,3.163,26.745,18.23
	c5.035,8.313,9.452,19.763,13.128,34.034C317.07,180.968,321,217.454,321,256s-3.93,75.032-11.064,102.736
	c-3.676,14.271-8.093,25.721-13.128,34.034C287.681,407.837,277.226,411,270.062,411z"/>
<path style="fill:#DAE0E7;" d="M130,512c-36.82,0-70.506-28.101-94.855-79.127C12.481,385.377,0,322.563,0,256
	S12.481,126.623,35.145,79.127C59.494,28.101,93.18,0,130,0s70.506,28.101,94.855,79.127C247.519,126.623,260,189.437,260,256
	s-12.481,129.377-35.145,176.873C200.506,483.899,166.82,512,130,512z"/>
<path style="fill:#466288;" d="M130,351c-30.918,0-45-49.245-45-95s14.082-95,45-95s45,49.245,45,95S160.918,351,130,351z"/>
<g>
</g>
<g>
</g>
<g>
</g>
<g>
</g>
<g>
</g>
<g>
</g>
<g>
</g>
<g>
</g>
<g>
</g>
<g>
</g>
<g>
</g>
<g>
</g>
<g>
</g>
<g>
</g>
<g>
</g>
</svg>
