<?xml version="1.0" encoding="iso-8859-1"?>
<!-- Generator: Adobe Illustrator 19.0.0, SVG Export Plug-In . SVG Version: 6.00 Build 0)  -->
<svg version="1.1" id="Capa_1" xmlns="http://www.w3.org/2000/svg" xmlns:xlink="http://www.w3.org/1999/xlink" x="0px" y="0px"
	 viewBox="0 0 512 512" style="enable-background:new 0 0 512 512;" xml:space="preserve">
<g>
	<g>
		<path d="M130,161c-30.918,0-45,49.245-45,95s14.082,95,45,95c30.918,0,45-49.245,45-95S160.918,161,130,161z M130,320.359
			c-5.216-4.926-15-26.749-15-64.359c0-37.61,9.784-59.434,15-64.359c5.216,4.926,15,26.749,15,64.359
			C145,293.61,135.216,315.434,130,320.359z"/>
	</g>
</g>
<g>
	<g>
		<path d="M476.855,432.873C499.519,385.377,512,322.563,512,256s-12.481-129.377-35.145-176.873C452.507,28.101,418.819,0,382,0
			c-42.206,0-79.849,36.664-104.163,101h-43.676c-2.88-7.594-5.98-14.902-9.306-21.873C200.506,28.101,166.82,0,130,0
			S59.494,28.101,35.145,79.127C12.481,126.623,0,189.437,0,256s12.481,129.377,35.145,176.873C59.494,483.899,93.18,512,130,512
			s70.506-28.101,94.855-79.127c3.326-6.97,6.426-14.279,9.306-21.873h43.676C302.151,475.336,339.794,512,382,512
			c17.236,0,33.785-6.159,49.011-17.944C455.634,505.559,483.077,512,512,512v-30c-20.566,0-40.244-3.861-58.361-10.881
			C462.052,460.35,469.843,447.568,476.855,432.873z M197.779,419.953C178.963,459.385,154.259,482,130,482
			c-24.259,0-48.963-22.615-67.779-62.047C41.443,376.41,30,318.184,30,256S41.443,135.59,62.221,92.047
			C81.037,52.615,105.741,30,130,30c24.259,0,48.963,22.615,67.779,62.047C218.557,135.59,230,193.816,230,256
			S218.557,376.41,197.779,419.953z M243.947,381C254.415,343.31,260,300.497,260,256s-5.585-87.31-16.054-125H297.4
			c2.645,2.589,8.859,12.664,14.294,37.353C317.051,192.678,320,223.806,320,256v64c0,21.315,3.497,41.827,9.938,61H243.947z
			 M382,482c-14.385,0-28.556-7.535-42.122-22.396c-11.061-12.118-21.162-28.709-29.689-48.604h32.784
			c14.229,26.323,34.428,48.96,58.77,66.095C395.213,480.318,388.591,482,382,482z M338.936,153.264
			c-2.171-8.43-4.604-15.868-7.267-22.264h31.735c2.648,2.598,8.86,12.682,14.291,37.352C383.051,192.678,386,223.806,386,256
			c0,32.194-2.949,63.322-8.306,87.648c-5.431,24.67-11.643,34.754-14.291,37.352h-1.47C354.248,362.162,350,341.569,350,320v-64
			C350,217.454,346.07,180.968,338.936,153.264z M426.119,457.301c-19.955-12.527-36.998-29.277-49.867-48.993
			c5.072-2.532,10.516-7.218,15.556-15.538c5.035-8.313,9.452-19.763,13.128-34.034C412.07,331.032,416,294.546,416,256
			c0-38.546-3.93-75.032-11.064-102.736c-3.676-14.271-8.093-25.721-13.128-34.034c-9.127-15.068-19.582-18.23-26.745-18.23H310.19
			c8.526-19.896,18.627-36.487,29.688-48.604C353.444,37.535,367.615,30,382,30c24.259,0,48.964,22.615,67.779,62.047
			C470.558,135.59,482,193.816,482,256s-11.442,120.41-32.221,163.953C442.628,434.94,434.624,447.491,426.119,457.301z"/>
	</g>
</g>
<g>
</g>
<g>
</g>
<g>
</g>
<g>
</g>
<g>
</g>
<g>
</g>
<g>
</g>
<g>
</g>
<g>
</g>
<g>
</g>
<g>
</g>
<g>
</g>
<g>
</g>
<g>
</g>
<g>
</g>
</svg>
