<?xml version="1.0" encoding="iso-8859-1"?>
<!-- Generator: Adobe Illustrator 19.0.0, SVG Export Plug-In . SVG Version: 6.00 Build 0)  -->
<svg version="1.1" id="Capa_1" xmlns="http://www.w3.org/2000/svg" xmlns:xlink="http://www.w3.org/1999/xlink" x="0px" y="0px"
	 viewBox="0 0 511.999 511.999" style="enable-background:new 0 0 511.999 511.999;" xml:space="preserve">
<g>
	<g>
		<path d="M472.275,130.185c-0.032-0.019-0.064-0.039-0.096-0.058L255.999,0L39.828,130.122c-0.039,0.023-0.077,0.047-0.116,0.07
			l-9.783,5.889v236.544L256,511.999l226.071-139.374V136.081L472.275,130.185z M235.992,452.66L69.94,350.289V182.784
			l166.052,99.953V452.66z M255.999,248.078L88.727,147.39L255.999,46.703L423.271,147.39L255.999,248.078z M442.057,350.289
			L276.005,452.66V282.738l166.052-99.953V350.289z"/>
	</g>
</g>
<g>
	<g>
		<circle cx="256" cy="112.375" r="20.006"/>
	</g>
</g>
<g>
	<g>
		<circle cx="116.956" cy="328.443" r="20.006"/>
	</g>
</g>
<g>
	<g>
		<circle cx="172.973" cy="294.433" r="20.006"/>
	</g>
</g>
<g>
	<g>
		<circle cx="395.043" cy="328.443" r="20.006"/>
	</g>
</g>
<g>
	<g>
		<circle cx="339.026" cy="294.433" r="20.006"/>
	</g>
</g>
<g>
	<g>
		<circle cx="256" cy="182.397" r="20.006"/>
	</g>
</g>
<g>
</g>
<g>
</g>
<g>
</g>
<g>
</g>
<g>
</g>
<g>
</g>
<g>
</g>
<g>
</g>
<g>
</g>
<g>
</g>
<g>
</g>
<g>
</g>
<g>
</g>
<g>
</g>
<g>
</g>
</svg>
