<?xml version="1.0" encoding="UTF-8"?>
<!-- Generator: Adobe Illustrator 19.1.0, SVG Export Plug-In . SVG Version: 6.00 Build 0)  -->
<svg version="1.1" id="Layer_1" xmlns="http://www.w3.org/2000/svg" xmlns:xlink="http://www.w3.org/1999/xlink" x="0px" y="0px" width="54px" height="65px" viewBox="0 0 54 65" style="enable-background:new 0 0 54 65;" xml:space="preserve">
<style type="text/css">
	.st0{fill:none;stroke:#59C4BE;stroke-width:4;stroke-miterlimit:10;}
	.st1{fill:none;stroke:#59C4BE;stroke-width:4;stroke-linejoin:round;stroke-miterlimit:10;}
</style>
<g>
	<path class="st0" d="M52,7.3v54.3c0,0.7-0.6,1.3-1.3,1.3H3.3C2.6,63,2,62.4,2,61.7v-5.3C2,55.6,2.6,55,3.3,55h25.3   c0.7,0,1.3-0.6,1.3-1.3V22.3c0-0.7-0.6-1.3-1.3-1.3H3.3C2.6,21,2,20.4,2,19.7v-8.8c0-0.4,0.2-0.8,0.5-1l9.3-7.5   C12.1,2.1,12.4,2,12.7,2h34C49.6,2,52,4.4,52,7.3z"/>
	<line class="st1" x1="40" y1="10" x2="53" y2="10"/>
	<line class="st1" x1="40" y1="18" x2="53" y2="18"/>
	<rect x="5" y="28" class="st0" width="10" height="6"/>
	<line class="st1" x1="13" y1="28" x2="13" y2="20"/>
	<line class="st1" x1="7" y1="28" x2="7" y2="20"/>
	<line class="st1" x1="10" y1="34" x2="10" y2="39"/>
	<rect x="41" y="34" class="st1" width="11" height="29"/>
</g>
</svg>