<svg style="position: absolute; width: 0; height: 0; overflow: hidden;" version="1.1" xmlns="http://www.w3.org/2000/svg" xmlns:xlink="http://www.w3.org/1999/xlink">
	<defs>
		<symbol id="tooltip-edit" viewBox="2 2 20 20">
			<path d="M 4,2L 20,2C 21.1046,2 22,2.89543 22,4L 22,16C 22,17.1046 21.1046,18 20,18L 16,18L 12,22L 8,18L 4,18C 2.89543,18 2,17.1046 2,16L 2,4C 2,2.89543 2.89543,2 4,2 Z M 18,14L 18,12L 12.5,12L 10.5,14L 18,14 Z M 5.99999,14L 8.47501,14L 15.353,7.12103C 15.549,6.92601 15.549,6.60901 15.353,6.41402L 13.586,4.64602C 13.39,4.45103 13.074,4.45103 12.878,4.64602L 5.99999,11.525L 5.99999,14 Z "></path>
		</symbol>
		<symbol id="book-open-variant" viewBox="1 4.5 22 17">
			<path d="M 21,5C 19.89,4.65 18.67,4.5 17.5,4.5C 15.55,4.5 13.45,4.9 12,6C 10.55,4.9 8.45,4.5 6.5,4.5C 4.55,4.5 2.45,4.9 1,6L 1,20.65C 1,20.9 1.25,21.15 1.5,21.15C 1.6,21.15 1.65,21.1 1.75,21.1C 3.1,20.45 5.05,20 6.5,20C 8.45,20 10.55,20.4 12,21.5C 13.35,20.65 15.8,20 17.5,20C 19.15,20 20.85,20.3 22.25,21.05C 22.35,21.1 22.4,21.1 22.5,21.1C 22.75,21.1 23,20.85 23,20.6L 23,6C 22.4,5.55 21.75,5.25 21,5 Z M 21,18.5C 19.9,18.15 18.7,18 17.5,18C 15.8,18 13.35,18.65 12,19.5L 12,8C 13.35,7.15 15.8,6.5 17.5,6.5C 18.7,6.5 19.9,6.65 21,7L 21,18.5 Z "></path>
		</symbol>
		<symbol id="instagram-with-circle" viewBox="20.48 20.48 983.04 983.04">
			<path d="M665.6 512c0 84.838-68.762 153.6-153.6 153.6s-153.6-68.762-153.6-153.6c0-8.755 0.922-17.306 2.509-25.6h-53.709v204.646c0 14.234 11.52 25.754 25.754 25.754h358.144c14.182 0 25.702-11.52 25.702-25.754v-204.646h-53.709c1.587 8.294 2.509 16.845 2.509 25.6zM512 614.4c56.525 0 102.4-45.875 102.4-102.4s-45.875-102.4-102.4-102.4-102.4 45.875-102.4 102.4 45.875 102.4 102.4 102.4zM634.88 404.48h61.389c8.499 0 15.411-6.912 15.411-15.36v-61.389c0-8.499-6.912-15.411-15.411-15.411h-61.389c-8.499 0-15.411 6.912-15.411 15.411v61.389c0.051 8.448 6.963 15.36 15.411 15.36zM512 20.48c-271.462 0-491.52 220.058-491.52 491.52s220.058 491.52 491.52 491.52c271.462 0 491.52-220.058 491.52-491.52s-220.058-491.52-491.52-491.52zM768 711.117c0 31.283-25.6 56.883-56.883 56.883h-398.234c-31.283 0-56.883-25.6-56.883-56.883v-398.234c0-31.283 25.6-56.883 56.883-56.883h398.234c31.283 0 56.883 25.6 56.883 56.883v398.234z"></path>
		</symbol>
		<symbol id="account" viewBox="4 4 16 16">
			<path d="M 12,4C 14.2091,4 16,5.79086 16,8C 16,10.2091 14.2091,12 12,12C 9.79086,12 8,10.2091 8,8C 8,5.79086 9.79086,4 12,4 Z M 12,14C 16.4183,14 20,15.7909 20,18L 20,20L 4,20L 4,18C 4,15.7909 7.58172,14 12,14 Z "></path>
		</symbol>
		<symbol id="link-external" viewBox="0 128 768 768">
			<path d="M640 768h-512v-510.094l128-1.906v-128h-256v768h768v-320h-128v192zM384 128l128 128-192 192 128 128 192-192 128 128v-384h-384z"></path>
		</symbol>
		<symbol id="arrow-up-thick" viewBox="4.081 4.161 15.839 15.839">
			<path d="M 14,20L 10,20L 9.99998,10.9896L 6.49479,14.4948L 4.08058,12.0806L 12,4.16116L 19.9194,12.0806L 17.5052,14.4948L 14,11L 14,20 Z "></path>
		</symbol>
		<symbol id="reload" viewBox="2.219 3.214 20.096 17.472">
			<path d="M 18.9918,11.9965L 22.3152,11.9965L 17.3654,16.9462L 12.4157,11.9965L 16.9694,11.9965C 16.9765,10.462 16.4179,8.92762 15.2441,7.75382C 12.9036,5.4133 9.09935,5.4133 6.75882,7.75382C 4.4183,10.0943 4.4183,13.8986 6.75883,16.2391C 8.60437,18.0846 11.3551,18.4736 13.5824,17.4058L 15.0532,18.8766C 11.9842,20.6867 7.98212,20.2908 5.34461,17.6533C 2.2192,14.5279 2.22628,9.47209 5.35168,6.34668C 8.47704,3.22133 13.5329,3.2142 16.6583,6.33961C 18.221,7.90231 18.9918,9.94585 18.9918,11.9965 Z "></path>
		</symbol>
		<symbol id="more" viewBox="64 208 384 96">
			<path d="M113.7 304C86.2 304 64 282.6 64 256c0-26.5 22.2-48 49.7-48 27.6 0 49.8 21.5 49.8 48 0 26.6-22.2 48-49.8 48zM256 304c-27.5 0-49.8-21.4-49.8-48 0-26.5 22.3-48 49.8-48 27.5 0 49.7 21.5 49.7 48 0 26.6-22.2 48-49.7 48zM398.2 304c-27.5 0-49.8-21.4-49.8-48 0-26.5 22.2-48 49.8-48 27.5 0 49.8 21.5 49.8 48 0 26.6-22.2 48-49.8 48z"></path>
		</symbol>
		<symbol id="pencil" viewBox="0 5.767 989.867 987.633">
			<path d="M0 993.4l68.4-343.69999999999993 273.4 273.4z m136.7-392.6l421.90000000000003-421.79999999999995 259.69999999999993 259.7-421.79999999999995 421.90000000000003z m531.2-494.09999999999997q1.9999999999998863-38.999999999999986 31.299999999999955-68.29999999999998t68.29999999999995-31.300000000000004 66.39999999999998 25.4l130.89999999999998 130.9q25.40000000000009 25.400000000000006 24.40000000000009 65.4t-30.300000000000068 69.30000000000001-69.29999999999995 30.299999999999955-65.39999999999998-24.399999999999977l-130.9000000000001-130.9q-27.299999999999955-27.299999999999983-25.399999999999977-66.39999999999999z"></path>
		</symbol>
		<symbol id="th-large" viewBox="0 0 999.9 999.9">
			<path d="M0 999.9l0-437.4 437.5 0 0 437.4-437.5 0z m0-562.4l0-437.5 437.5 0 0 437.5-437.5 0z m562.5 562.4l0-437.4 437.4 0 0 437.4-437.4 0z m0-562.4l0-437.5 437.4 0 0 437.5-437.4 0z"></path>
		</symbol>
		<symbol id="facebook-circled" viewBox="0 31.733 937 937.133">
			<path d="M0 500.3q0-95.19999999999999 37.1-182t100-149.60000000000002 149.6-99.79999999999998 181.8-37.10000000000001 182 37.10000000000001 149.60000000000002 99.79999999999998 99.79999999999995 149.60000000000002 37.10000000000002 182-37.10000000000002 181.99999999999994-99.79999999999995 149.60000000000002-149.60000000000002 99.80000000000007-182 37.09999999999991-181.8-37.09999999999991-149.6-99.80000000000007-100-149.60000000000002-37.099999999999994-181.99999999999994z m350.9 0h52.200000000000045v252.8h104.39999999999998v-252.8h70.29999999999995l8.800000000000068-87.40000000000003h-78.60000000000002v-43.89999999999998q0-19.5 5.899999999999977-27.100000000000023t28.800000000000068-7.5h43.39999999999998v-87.39999999999998h-69.80000000000007q-60.99999999999994 0-87.09999999999997 28.80000000000001t-26.099999999999966 84.89999999999998v52.19999999999999h-52.200000000000045v87.40000000000003z"></path>
		</symbol>
		<symbol id="facebook-box" viewBox="3 3 18 18">
			<path d="M 5,3L 19,3C 20.1046,3 21,3.89543 21,5L 21,19C 21,20.1046 20.1046,21 19,21L 5,21C 3.89543,21 3,20.1046 3,19L 3,5C 3,3.89543 3.89543,3 5,3 Z M 17.9994,4.99807L 15.4994,4.99807C 13.5664,4.99807 11.9994,6.56407 11.9994,8.49807L 11.9994,10.9981L 9.99939,10.9981L 9.99939,13.9981L 11.9994,13.9981L 11.9994,20.9981L 14.9994,20.9981L 14.9994,13.9981L 17.9994,13.9981L 17.9994,10.9981L 14.9994,10.9981L 14.9994,8.99807C 14.9994,8.44507 15.4474,7.99807 15.9994,7.99807L 17.9994,7.99807L 17.9994,4.99807 Z "></path>
		</symbol>
		<symbol id="instagram" viewBox="2 2 20 20">
			<path d="M 7.8,2.00002L 16.2,2.00002C 19.4032,2.00002 22,4.59677 22,7.80002L 22,16.2C 22,19.4033 19.4032,22 16.2,22L 7.8,22C 4.59675,22 2,19.4033 2,16.2L 2,7.80002C 2,4.59677 4.59675,2.00002 7.8,2.00002 Z M 7.6,4C 5.61177,4 4,5.61178 4,7.6L 4,16.4C 4,18.3882 5.61177,20 7.6,20L 16.4,20C 18.3882,20 20,18.3882 20,16.4L 20,7.6C 20,5.61178 18.3882,4 16.4,4L 7.6,4 Z M 17.25,5.5C 17.9404,5.5 18.5,6.05965 18.5,6.75C 18.5,7.44036 17.9404,8 17.25,8C 16.5596,8 16,7.44036 16,6.75C 16,6.05965 16.5596,5.5 17.25,5.5 Z M 12,7C 14.7614,7 17,9.23858 17,12C 17,14.7614 14.7614,17 12,17C 9.23857,17 7,14.7614 7,12C 7,9.23858 9.23857,7 12,7 Z M 12,9C 10.3431,9 9,10.3432 9,12C 9,13.6569 10.3431,15 12,15C 13.6569,15 15,13.6569 15,12C 15,10.3432 13.6569,9 12,9 Z "></path>
		</symbol>
		<symbol id="exclamation-triangle" viewBox="0 0 576 512">
			<path d="M569.517 440.013C587.975 472.007 564.806 512 527.94 512H48.054c-36.937 0-59.999-40.055-41.577-71.987L246.423 23.985c18.467-32.009 64.72-31.951 83.154 0l239.94 416.028zM288 354c-25.405 0-46 20.595-46 46s20.595 46 46 46 46-20.595 46-46-20.595-46-46-46zm-43.673-165.346l7.418 136c.347 6.364 5.609 11.346 11.982 11.346h48.546c6.373 0 11.635-4.982 11.982-11.346l7.418-136c.375-6.874-5.098-12.654-11.982-12.654h-63.383c-6.884 0-12.356 5.78-11.981 12.654z"></path>
		</symbol>
		<symbol id="arrow-menu" viewBox="0 0 63.6 106.1">

<path d="M63.6,53L53,63.6L42.4,53L53,42.4L63.6,53z M42.4,31.8L31.8,42.4L21.2,31.8l10.6-10.6L42.4,31.8z M42.4,74.2L31.8,84.9	L21.2,74.2l10.6-10.6L42.4,74.2z M21.2,53L10.6,63.6L0,53l10.6-10.6L21.2,53z M21.2,95.5l-10.6,10.6L0,95.5l10.6-10.6L21.2,95.5z	 M21.2,10.6L10.6,21.2L0,10.6L10.6,0L21.2,10.6z" xmlns="http://www.w3.org/2000/svg" />


		</symbol>
		<symbol id="coin" viewBox="2 2 20 20">
			<path d="M 12,2C 17.5228,2 22,6.47715 22,12C 22,17.5228 17.5228,22 12,22C 6.47715,22 2,17.5228 2,12C 2,6.47715 6.47715,2 12,2 Z M 12,4C 7.58172,4 4,7.58173 4,12C 4,16.4183 7.58172,20 12,20C 16.4183,20 20,16.4183 20,12C 20,7.58173 16.4183,4 12,4 Z M 11,17L 11,16L 9,16L 9,14L 13,14L 13,13L 10,13C 9.448,13 9,12.552 9,12L 9,9C 9,8.448 9.448,8 10,8L 11,8L 11,7L 13,7L 13,8L 15,8L 15,10L 11,10L 11,11L 14,11C 14.552,11 15,11.448 15,12L 15,15C 15,15.552 14.552,16 14,16L 13,16L 13,17L 11,17 Z "></path>
		</symbol>
	</defs>
</svg>
