<svg xmlns="http://www.w3.org/2000/svg" width="150" height="31.185" viewBox="0 0 150 31.185"><defs><style>.a{fill:#241f20;}.a,.b,.c,.d,.e,.f,.g{fill-rule:evenodd;}.b{fill:#93d629;}.c{fill:#fa0;}.d{fill:#ed3921;}.e{fill:#f80;}.f{fill:#f66418;}.g{fill:#ffec00;}</style></defs><title>pagseguro-01</title><path class="a" d="M33.591,25.1c1.694-5.146,3.307-10.367,4.525-15.753,0.95,0,2.034.023,2.984,0.023L40.74,11.4c2.412-1.565,4-1.97,5.58-1.841,5.717,0.467,2.643,7.979-.378,9.784-1.772,1.06-4.174,1.532-7.492,1.061L37.278,25.1H33.591ZM44.882,16.79c1.726-1.446,1.707-4.071.522-4.824s-3.862-.152-4.735,2-0.943,3.472-1.42,4.645c1-.073,3.908-0.379,5.634-1.825h0Z"/><path class="a" d="M61.541,20.687c-1.076,0-2.016.022-3.091,0.022l0.2-2.33c-2.211,2.089-5.794,3.47-7.438,1.5-2.252-3.076-.119-7.077,2.419-8.721,2.817-1.825,6.557-1.73,10.284-1.809a37.809,37.809,0,0,0-2.374,11.337h0ZM55.1,13.211c-1.5,1.445-1.484,4.071-.454,4.824s3.36,0.153,4.119-2S59.584,12.56,60,11.387c-0.868.073-3.4,0.379-4.9,1.825h0Z"/><path class="a" d="M62.766,25.185l0.541-2.876c2.4,0.779,4.488,1.153,6.055.367,1.219-.612,2.125-1.925,2.623-4.3-2.21,2.089-5.794,3.47-7.438,1.5-2.252-3.076-.119-7.077,2.419-8.721,2.817-1.825,6.557-1.73,10.285-1.809-1.154,3.207-1.176,8.24-2.709,11.821a7.009,7.009,0,0,1-3.8,3.8,12.592,12.592,0,0,1-7.981.213h0Zm5.667-11.974c-1.5,1.445-1.485,4.071-.454,4.824s3.361,0.153,4.119-2,0.82-3.471,1.235-4.645c-0.869.073-3.4,0.379-4.9,1.825h0Z"/><path class="b" d="M99.689,25.185l0.541-2.876c2.4,0.779,4.488,1.153,6.055.367,1.218-.612,2.125-1.925,2.622-4.3-2.21,2.089-5.794,3.47-7.437,1.5-2.252-3.076-.119-7.077,2.418-8.721,2.817-1.825,6.558-1.73,10.285-1.809-1.155,3.207-1.176,8.24-2.709,11.821a7.007,7.007,0,0,1-3.795,3.8,12.592,12.592,0,0,1-7.98.213h0Zm41.589-11.02c-1.06,1.894-.927,3.9.3,4.487s3.076-.48,4.136-2.375,0.928-3.9-.3-4.487-3.076.48-4.136,2.375h0Zm-0.944-3.374c-3.282,2.2-4.6,5.906-2.939,8.278s5.667,2.512,8.948.313,4.6-5.906,2.94-8.279-5.667-2.512-8.949-.313h0Zm-13.246,9.531A108.182,108.182,0,0,0,130.22,9.4h2.6l-0.09,2.327A6.156,6.156,0,0,1,138.007,9.4l-0.985,2.953c-2.6-.341-4.426,1.737-5.438,5.17a20.765,20.765,0,0,0-.613,2.87l-3.883-.075h0ZM116.617,9.314l3.221,0.09c-0.567,2.386-1.492,4.683-2.058,7.07-0.84,2.9,2.623,2.6,4.116.805,1.33-2.339,1.925-5.145,2.775-7.965h3.221A63.763,63.763,0,0,0,125.119,20.5c-0.954-.06-2.088-0.12-3.042-0.179q0.045-.9.089-1.79c-3.228,2.966-8.541,3.748-7.876-1.253a49.237,49.237,0,0,1,2.327-7.965h0ZM98.27,18.085c-0.089.746-.358,1.491-0.447,2.237-3.475.477-7.2,1.282-9.129-1.432-1.992-3.841.881-7.36,3.4-8.681,4.423-1.984,7.5-.974,8.144.984,1.311,3.435-2.744,5.7-8.592,5.012-0.61,2.986,2.442,2.942,6.622,1.88h0ZM92.208,14.1a4.082,4.082,0,0,1,3.311-2.64,1.079,1.079,0,0,1,.759,1.992c-1.56.673-1.735-.249-4.07,0.648h0ZM77.821,17.861c-0.359.775-.761,1.6-1.119,2.371,4.371,0.951,7.718.378,9.039-1.029,1.29-1.591,1.073-3.391-1.163-4.7-0.477-.331-1.825-1-1.79-1.789,0.063-1.8,2.8-1.371,4.476-.85L87.8,9.4a12.84,12.84,0,0,0-3.859-.236,7.027,7.027,0,0,0-4.24,1.981,3.033,3.033,0,0,0-.793,3.105c0.415,0.964,1.761,1.369,2.448,1.772,1.149,0.535,1.833.939,1.638,1.753-0.163.683-1,1.242-2.486,0.976a9.02,9.02,0,0,1-2.688-.893h0Zm27.535-4.65c-1.5,1.445-1.484,4.071-.455,4.824s3.361,0.153,4.12-2,0.82-3.471,1.235-4.645c-0.869.073-3.4,0.379-4.9,1.825h0Z"/><path class="a" d="M3.574,5.366A14.923,14.923,0,0,0,.994,9.814,14.747,14.747,0,0,0,0,15.13a15.156,15.156,0,0,0,1.226,5.921,14.747,14.747,0,0,0,3.217,4.8,15.13,15.13,0,0,0,4.766,3.219,14.679,14.679,0,0,0,5.884,1.239,14.527,14.527,0,0,0,5.92-1.239,15.35,15.35,0,0,0,4.766-3.219,14.627,14.627,0,0,0,3.167-4.8,14.72,14.72,0,0,0,.246-11.238,15.853,15.853,0,0,0-2.58-4.448,14.6,14.6,0,0,0-3.857-3.253A14.39,14.39,0,0,0,15.365,0H14.972A14.846,14.846,0,0,0,7.465,2.113,14.545,14.545,0,0,0,3.574,5.366h0Z"/><path class="a" d="M139.593,23.355a4.122,4.122,0,0,0-1.568.287,3.764,3.764,0,0,0-1.276.839,3.644,3.644,0,0,0-.839,1.248,4,4,0,0,0-.286,1.554,3.964,3.964,0,0,0,.286,1.526,3.829,3.829,0,0,0,.839,1.249,4.066,4.066,0,0,0,2.845,1.125,4.494,4.494,0,0,0,1.575-.292,4.289,4.289,0,0,0,1.276-.834,3.757,3.757,0,0,0,.853-1.268,3.856,3.856,0,0,0,.291-1.507,4.013,4.013,0,0,0-.291-1.554,3.434,3.434,0,0,0-.839-1.248,3.818,3.818,0,0,0-1.29-.839,4.13,4.13,0,0,0-1.575-.287h0Zm0,2.5a1.118,1.118,0,0,1,.915.4,1.49,1.49,0,0,1,.353,1.037,1.446,1.446,0,0,1-.353,1.008,1.16,1.16,0,0,1-.915.378,1.11,1.11,0,0,1-.895-0.378,1.379,1.379,0,0,1-.353-1.008,1.422,1.422,0,0,1,.353-1.037,1.087,1.087,0,0,1,.895-0.4h0Z"/><path class="a" d="M134.388,28.886a8.008,8.008,0,0,0,.088-1.328V23.519H131.8V27.59a1.96,1.96,0,0,1-.169.976,0.629,0.629,0,0,1-.58.272,0.621,0.621,0,0,1-.574-0.272,2,2,0,0,1-.17-0.976V23.519h-2.665v4.039a6.269,6.269,0,0,0,.093,1.328,2.4,2.4,0,0,0,.316.853,2.93,2.93,0,0,0,1.234,1.064,4.286,4.286,0,0,0,3.534,0,2.771,2.771,0,0,0,1.219-1.064,2.741,2.741,0,0,0,.354-0.853h0Z"/><polygon class="a" points="147.396 23.519 144.714 23.519 144.714 30.987 150 30.987 150 28.566 147.396 28.566 147.396 23.519 147.396 23.519"/><path class="c" d="M25.179,5.491a12.063,12.063,0,0,0-7.275-4.3A12.249,12.249,0,0,0,9.566,2.507,12,12,0,0,0,6.152,5.33,11.61,11.61,0,0,0,4.016,9.261,11.427,11.427,0,0,0,3.574,13.9a10.523,10.523,0,0,1,1.708-2.776A10.877,10.877,0,0,1,9.016,8.3a11.862,11.862,0,0,1,4.6-1.031,11.7,11.7,0,0,1,4.688.959,10.926,10.926,0,0,1,4.054,2.862,10.046,10.046,0,0,1,1.142,1.461,5.581,5.581,0,0,1,1.474.16,5.222,5.222,0,0,1,2.777,1.792l0.035-.566a11.939,11.939,0,0,0-.463-4.446,12.05,12.05,0,0,0-2.149-4h0Z"/><path class="c" d="M3.253,19.786a9.972,9.972,0,0,0,1.152,3.377,10.241,10.241,0,0,0,2.262,2.814l0.479,0.393a14.478,14.478,0,0,0,5.283,2.309,8.775,8.775,0,0,0,3.659-.123,10.023,10.023,0,0,0,3.575-1.548A4.913,4.913,0,0,1,17,25.387l-0.281-.319a14.74,14.74,0,0,1-4.52-.2,14.108,14.108,0,0,1-5.122-2.346,13.4,13.4,0,0,1-3.624-4.212l-0.233-.481a11.537,11.537,0,0,0,.037,1.953h0Z"/><path class="d" d="M17.389,9.777a11.128,11.128,0,0,0-4.444-.872,10.179,10.179,0,0,0-4.25.993,9.51,9.51,0,0,0-5,5.283A12.125,12.125,0,0,0,5.048,18.6a12.306,12.306,0,0,0,3.573,3.892,12.974,12.974,0,0,0,4.8,2.1,14.529,14.529,0,0,0,3.294.233,6,6,0,0,1-.836-2.333,8.041,8.041,0,0,1,.048-2.7,9.209,9.209,0,0,1,1.226-3.218,10.089,10.089,0,0,1,2.458-2.629A9.87,9.87,0,0,1,21.6,12.834l-0.358-.405a11.224,11.224,0,0,0-3.857-2.652h0Z"/><path class="e" d="M28,16.568l-0.354-.6a12.985,12.985,0,0,1-2.7,4.815,10.746,10.746,0,0,1-1.387,3.255,11,11,0,0,1-2.433,2.616,5.07,5.07,0,0,0,2.028-.32,6.5,6.5,0,0,0,1.828-1.069,16.469,16.469,0,0,0,2.187-2.541l0.109-.159a17.881,17.881,0,0,0,.76-1.745,7.158,7.158,0,0,0,.359-1.742,5.969,5.969,0,0,0-.074-1.635A7.121,7.121,0,0,0,28,16.568h0Z"/><path class="f" d="M1.864,9.578a15.369,15.369,0,0,0-.87,4.572,14.817,14.817,0,0,0,1.155,6.032,14.669,14.669,0,0,0,1.459,2.628,15.062,15.062,0,0,0,1.9,2.209,10.592,10.592,0,0,1-2.736-5.907,14.593,14.593,0,0,1-.038-2.223,12.732,12.732,0,0,1-.8-4.336,13.8,13.8,0,0,1,.675-4.128,16.01,16.01,0,0,1,1.352-2.7,14.724,14.724,0,0,0-2.1,3.853h0Z"/><path class="f" d="M28.985,10.416a15.829,15.829,0,0,0-1.426-3.3,12.846,12.846,0,0,0-2.184-2.737,12.06,12.06,0,0,0-2.739-2.15,13.449,13.449,0,0,1,2.382,2.112,11.881,11.881,0,0,1,3.1,8.929c-0.036.516-.112,0.994-0.2,1.511a7.4,7.4,0,0,1,.566,1.116,7.514,7.514,0,0,1,.268,3.612,15.136,15.136,0,0,0,.871-5.355,15.82,15.82,0,0,0-.637-3.734h0Z"/><path class="f" d="M24.3,14.186a8.684,8.684,0,0,1,.75,2.653A12.043,12.043,0,0,1,25.14,19.5l-0.16.872a11.579,11.579,0,0,0,2.458-4.73,7.529,7.529,0,0,0-.875-0.784,3.849,3.849,0,0,0-2.26-.677h0Z"/><path class="d" d="M21.923,24.662a9.744,9.744,0,0,0,1.154-2.175,13.681,13.681,0,0,1-5.244,2.333,3.75,3.75,0,0,0,1.03,1.082,4.939,4.939,0,0,0,1.35.627,10.724,10.724,0,0,0,1.709-1.867h0Z"/><path class="d" d="M13.937,28.911L15.648,29a14.525,14.525,0,0,0,4.212-.761,14.346,14.346,0,0,0,3.575-1.781,5.648,5.648,0,0,1-2.149.589,4.093,4.093,0,0,1-.788.049,11.341,11.341,0,0,1-6.561,1.819h0Z"/><path class="g" d="M23.4,17.4a10.892,10.892,0,0,0-1.116-2.9,6.748,6.748,0,0,0-2.458,1.387,8.606,8.606,0,0,0-1.988,2.458,8.372,8.372,0,0,0-.8,2.822,6.045,6.045,0,0,0,.245,2.544,3.781,3.781,0,0,0,.358.75,9.671,9.671,0,0,0,2.812-.787,10.648,10.648,0,0,0,2.664-1.509l0.074-.051a15.035,15.035,0,0,0,.37-1.782A10.835,10.835,0,0,0,23.4,17.4h0Z"/></svg>